{"title":"De zaak Alzheimer 2003 720p BRRip x264 titler","magnet":"magnet:?xt=urn:btih:33740624d96c5dc49e98f3b56f548c64cdc4a45e&dn=De+zaak+Alzheimer+2003+720p+BRRip+x264+titler&tr=udp%3A%2F%2Ftracker.leechers-paradise.org%3A6969&tr=udp%3A%2F%2Fzer0day.ch%3A1337&tr=udp%3A%2F%2Fopen.demonii.com%3A1337&tr=udp%3A%2F%2Ftracker.coppersurfer.tk%3A6969&tr=udp%3A%2F%2Fexodus.desync.com%3A6969","uploader":"movieZ.freak","categoryP":"video","categoryS":"hd___movies","size":"1304451559","seeders":"5","leechers":"3","description":"SOURCE: De zaak Alzheimer 2003 720p BluRay X264 DTS\r\n\r\n <a href=\"\nhttp://www.imdb.com/title/tt0374345/\" rel=\"nofollow\" target=\"_NEW\">\nhttp://www.imdb.com/title/tt0374345/</a>\r\n <a href=\"\nhttps://www.rottentomatoes.com/m/de_zaak_alzheimer/\" rel=\"nofollow\" target=\"_NEW\">\nhttps://www.rottentomatoes.com/m/de_zaak_alzheimer/</a>\r\n <a href=\"\nhttps://en.wikipedia.org/wiki/The_Alzheimer_Case\" rel=\"nofollow\" target=\"_NEW\">\nhttps://en.wikipedia.org/wiki/The_Alzheimer_Case</a>\r\n\r\n\r\n- SAMPLE: Yes\r\n\r\n- SUBTITLE: English\r\n\r\n- LANGUAGE / AUDIO: Dutch, French, Flemish\r\n\r\n\r\nSCREENSHOTS:\r\n------------------- <a href=\"\nhttps://imgur.com/a/ZDCAx\" rel=\"nofollow\" target=\"_NEW\">\nhttps://imgur.com/a/ZDCAx</a>\r\n\r\n\r\nDIRECTOR: Erik Van Looy\r\n\r\n\r\nCAST: Koen De Bouw, Werner De Smedt, Jan Decleir, Laurien Van den Broeck, Dirk Roofthooft, Geert Van Rampelberg, ...\r\n\r\n\r\nPLOT:\r\n-----------\r\nA French assassin suffering from the onset of Alzheimer&apos;s disease finds himself on the run after refusing to carry out a hit on a 12-year-old prostitute. Jan Decleir stars in this riveting thriller from director Erik Van Looy.\r\n************************************\r\n\r\n- Duration: 1h 58min\r\n\r\n- Nominal bit rate: 1338 kb/s\r\n\r\n- Res: 1280 x 546\r\n\r\n- AR: 2.35:1\r\n\r\n- FPS: 25.000 FPS\r\n\r\n- Audio: AAC, 2 channels, 128 Kbps\r\n\r\n************************************\r\n\r\nGeneral\r\n----------\r\nFormat : Matroska\r\nFormat version : Version 4 / Version 2\r\nFile size : 1.20 GiB\r\nDuration : 1h 58min\r\nOverall bit rate : 1452 kb/s\r\nEncoded date : UTC 2017-11-19 00:31:07\r\nWriting application : mkvmerge v18.0.0 (&apos;Apricity&apos;) 64-bit\r\nWriting library : libebml v1.3.5 + libmatroska v1.4.8\r\n\r\nVideo\r\n----------\r\nFormat : AVC\r\nFormat/Info : Advanced Video Codec\r\nFormat profile : <a href=\"/cdn-cgi/l/email-protection\" class=\"__cf_email__\" data-cfemail=\"93dbfaf4fbd3dfa7bda2\">[email&#xA0;protected]</a>\r\nFormat settings, CABAC : Yes\r\nFormat settings, ReFrames : 5 frames\r\nCodec ID : V_MPEG4/ISO/AVC\r\nDuration : 1h 58 min\r\nBit rate : 1338 kb/s\r\nWidth : 1280 pixels\r\nHeight : 546 pixels\r\nDisplay aspect ratio : 2.35:1\r\nFrame rate mode : Constant\r\nFrame rate : 25.000 FPS\r\nColor space : YUV\r\nChroma subsampling : 4:2:0\r\nBit depth : 8 bits\r\nScan type : Progressive\r\nBits/(Pixel*Frame) : 0.077\r\nStream size : 1.09 GiB (91%)\r\nWriting library : x264 core 142\r\nEncoding settings : cabac=1 / ref=5\r\nDefault : Yes\r\nForced : No\r\n\r\nAudio\r\n--------\r\nFormat : AAC\r\nFormat/Info : Advanced Audio Codec\r\nFormat profile : LC\r\nCodec ID : A_AAC\r\nDuration : 1h 58min\r\nBit rate : 128 kb/s\r\nChannel(s) : 2 channels\r\nChannel positions : Front: L R\r\nSampling rate : 48.0 kHz\r\nCompression mode : Lossy\r\nStream size : 108 MiB (9%)\r\nTitle : Stereo\r\nLanguage : Dutch\r\nDefault : Yes\r\nForced : No","last_updated":"2017-11-19T12:09:13.564Z","parsed":{"xt":"urn:btih:33740624d96c5dc49e98f3b56f548c64cdc4a45e","dn":"De zaak Alzheimer 2003 720p BRRip x264 titler","tr":["udp://exodus.desync.com:6969","udp://open.demonii.com:1337","udp://tracker.coppersurfer.tk:6969","udp://tracker.leechers-paradise.org:6969","udp://zer0day.ch:1337"],"infoHash":"33740624d96c5dc49e98f3b56f548c64cdc4a45e","infoHashBuffer":{"type":"Buffer","data":[51,116,6,36,217,108,93,196,158,152,243,181,111,84,140,100,205,196,164,94]},"name":"De zaak Alzheimer 2003 720p BRRip x264 titler","announce":["udp://exodus.desync.com:6969","udp://open.demonii.com:1337","udp://tracker.coppersurfer.tk:6969","udp://tracker.leechers-paradise.org:6969","udp://zer0day.ch:1337"],"urlList":[]}}